<?xml version="1.0" standalone="no"?>
<!DOCTYPE svg PUBLIC "-//W3C//DTD SVG 20010904//EN"
 "http://www.w3.org/TR/2001/REC-SVG-20010904/DTD/svg10.dtd">
<svg version="1.0" xmlns="http://www.w3.org/2000/svg"
 width="1002.000000pt" height="876.000000pt" viewBox="0 0 1002.000000 876.000000"
 preserveAspectRatio="xMidYMid meet">

<g transform="translate(0.000000,876.000000) scale(0.100000,-0.100000)"
fill="#ffffff" stroke="none">
<path d="M4776 8744 c-250 -39 -255 -41 -1286 -619 -130 -73 -647 -361 -1075
-600 -27 -15 -88 -49 -135 -75 -47 -26 -220 -123 -385 -215 -165 -92 -340
-190 -390 -217 -49 -28 -162 -91 -250 -140 -302 -170 -381 -214 -692 -387
-171 -96 -338 -195 -370 -221 -102 -82 -183 -235 -183 -345 0 -57 32 -159 68
-215 61 -96 114 -142 257 -220 201 -110 449 -248 505 -280 36 -20 189 -106
340 -190 151 -84 311 -173 355 -198 44 -25 103 -57 130 -72 44 -24 222 -123
810 -453 88 -49 219 -122 290 -162 72 -40 220 -123 330 -185 110 -62 261 -146
335 -187 74 -42 140 -79 145 -83 6 -4 42 -24 80 -45 102 -55 386 -214 489
-274 49 -28 91 -51 94 -51 2 0 30 -15 61 -34 266 -160 529 -222 833 -196 235
20 368 66 653 228 215 121 389 219 440 247 49 27 238 133 325 183 25 14 63 36
85 48 22 12 114 63 205 114 91 52 199 112 240 135 179 99 294 163 433 242 82
47 190 107 240 135 151 83 231 128 457 255 118 66 242 135 275 153 33 18 128
71 210 118 83 47 175 99 205 115 30 17 89 49 130 72 41 23 104 58 140 78 36
19 104 57 152 83 48 27 173 96 279 154 235 128 309 190 367 309 35 72 37 81
37 176 0 92 -3 105 -32 165 -17 36 -58 94 -91 130 -61 67 -104 96 -347 230
-389 215 -516 286 -575 320 -36 20 -112 63 -170 95 -232 129 -369 205 -440
245 -41 23 -120 67 -175 97 -55 30 -129 72 -165 93 -36 20 -189 106 -340 190
-151 84 -324 180 -385 215 -183 103 -731 409 -1200 670 -126 71 -248 139 -270
153 -83 53 -319 161 -393 181 -187 50 -455 65 -646 35z m719 -943 c33 -18 110
-61 170 -96 90 -51 359 -199 585 -323 25 -14 108 -59 185 -102 167 -92 424
-233 515 -283 36 -19 99 -54 140 -77 133 -75 621 -344 940 -520 534 -293 552
-306 565 -393 8 -54 -18 -113 -68 -151 -30 -23 -293 -176 -303 -176 -2 0 -33
-18 -69 -40 -36 -22 -68 -40 -71 -40 -3 0 -56 -29 -117 -64 -62 -35 -278 -157
-482 -271 -203 -114 -404 -226 -445 -250 -41 -23 -111 -62 -155 -87 -44 -25
-102 -58 -130 -73 -27 -16 -84 -47 -125 -70 -266 -147 -392 -217 -520 -290
-190 -108 -391 -221 -460 -258 -30 -17 -66 -38 -80 -47 -35 -25 -138 -67 -182
-75 -87 -16 -204 41 -239 118 -18 41 -19 93 -19 1745 0 1868 -4 1737 61 1798
59 55 86 65 169 61 62 -3 86 -9 135 -36z"/>
<path d="M9970 5472 c-60 -75 -138 -137 -257 -202 -145 -80 -158 -87 -288
-160 -66 -37 -255 -143 -420 -235 -364 -204 -845 -473 -938 -526 -38 -22 -71
-39 -73 -39 -2 0 -33 -18 -69 -40 -36 -22 -67 -40 -70 -40 -2 0 -42 -22 -87
-49 -93 -54 -277 -157 -323 -179 -16 -8 -41 -23 -55 -32 -14 -9 -54 -33 -90
-52 -100 -55 -271 -150 -808 -451 -271 -153 -494 -277 -496 -277 -2 0 -59 -32
-127 -71 -143 -82 -311 -168 -388 -199 -122 -48 -399 -87 -540 -75 -240 19
-449 81 -636 187 -154 88 -717 404 -870 488 -33 18 -105 58 -160 90 -55 31
-147 83 -205 115 -58 32 -141 78 -185 103 -108 62 -341 191 -630 351 -132 73
-269 150 -305 171 -36 21 -177 101 -315 177 -137 77 -349 195 -470 263 -121
68 -263 146 -315 175 -154 85 -194 107 -205 115 -12 8 -89 51 -240 133 -163
88 -265 159 -333 232 -34 36 -63 65 -66 65 -7 0 3 -1949 10 -1995 3 -22 24
-78 46 -125 60 -125 143 -203 318 -299 74 -41 160 -89 190 -107 31 -18 128
-73 215 -122 151 -83 545 -306 860 -485 77 -44 188 -106 246 -137 58 -32 179
-101 270 -153 90 -52 236 -135 324 -184 88 -49 252 -141 365 -205 113 -63 225
-126 250 -140 25 -14 104 -59 175 -100 72 -41 220 -126 330 -188 319 -180 633
-358 731 -415 121 -70 203 -108 299 -139 252 -81 538 -79 789 5 83 28 264 116
326 159 28 19 86 52 200 113 41 22 86 48 100 57 14 9 57 34 95 55 39 21 133
74 210 118 208 119 921 521 1045 590 30 16 116 65 190 107 144 83 165 94 305
173 50 28 122 68 160 90 39 22 104 59 145 82 41 23 109 61 150 85 41 24 116
65 165 92 50 28 131 74 180 102 75 44 338 192 500 281 22 12 72 40 110 62 39
22 133 75 210 118 312 174 376 224 439 344 69 131 66 89 64 1190 l-3 990 -45
-57z"/>
<path d="M3 3032 c7 -146 29 -230 84 -322 69 -117 118 -155 379 -302 110 -61
235 -131 279 -156 44 -24 105 -58 135 -75 30 -17 127 -72 215 -122 162 -92
329 -187 708 -400 115 -64 324 -182 465 -262 141 -80 277 -157 302 -171 25
-14 160 -90 300 -170 140 -79 327 -185 415 -235 88 -49 239 -135 335 -190 174
-99 306 -174 364 -207 17 -9 80 -45 139 -78 60 -34 110 -62 112 -62 2 0 69
-38 150 -85 80 -47 177 -98 214 -114 223 -95 522 -107 752 -31 110 37 166 65
377 188 95 56 174 102 177 102 2 0 97 54 211 120 114 66 209 120 211 120 2 0
47 25 101 56 53 31 117 68 142 82 49 27 167 93 273 153 161 93 213 123 412
234 116 65 253 143 305 173 52 30 124 71 160 90 36 19 137 76 225 127 88 50
169 96 180 102 11 7 47 27 80 46 33 19 113 65 178 101 158 89 331 186 392 221
28 16 68 38 90 50 22 12 177 100 345 195 168 95 356 201 418 236 62 35 132 77
156 93 104 72 199 215 225 339 6 29 11 105 11 168 l0 115 -49 -58 c-26 -33
-70 -77 -97 -99 -49 -41 -175 -124 -188 -124 -3 0 -23 -11 -44 -23 -20 -13
-134 -78 -252 -144 -118 -66 -280 -158 -360 -203 -80 -45 -309 -174 -510 -287
-201 -113 -412 -233 -470 -266 -58 -33 -125 -71 -150 -85 -194 -108 -404 -226
-501 -284 -64 -37 -119 -68 -123 -68 -3 0 -40 -20 -82 -45 -41 -25 -77 -45
-80 -45 -2 0 -41 -22 -86 -49 -46 -26 -128 -73 -183 -103 -130 -72 -66 -36
-690 -390 -739 -421 -752 -425 -1100 -435 -158 -5 -195 -3 -295 17 -154 29
-302 87 -450 175 -30 18 -107 62 -170 98 -63 35 -162 91 -220 124 -58 33 -127
72 -155 88 -27 15 -79 44 -115 65 -36 21 -132 76 -215 122 -82 47 -233 133
-335 190 -102 58 -216 123 -255 143 -38 21 -131 73 -205 115 -74 42 -160 90
-190 107 -95 52 -370 207 -505 285 -72 41 -160 91 -195 110 -36 20 -121 68
-190 108 -69 39 -174 99 -235 133 -106 58 -586 330 -790 446 -55 32 -138 78
-185 104 -129 69 -223 139 -282 211 -29 36 -57 65 -62 65 -5 1 -7 -52 -3 -127z"/>
</g>
</svg>
